<svg xmlns="http://www.w3.org/2000/svg" xmlns:xlink="http://www.w3.org/1999/xlink" width="129.697" height="32.327" viewBox="0 0 129.697 32.327">
  <defs>
    <clipPath id="clip-path">
      <path id="패스_1497" data-name="패스 1497" d="M326.168,389.811V418.24h18.6v-1.9h-12.2V389.811Z" transform="translate(-326.168 -389.811)" fill="#213317"/>
    </clipPath>
    <clipPath id="clip-path-2">
      <path id="패스_1498" data-name="패스 1498" d="M318.136,388.2v1.925H316.33a3.2,3.2,0,0,0-3.229,3.406v7.194h5.036v2.221H313.1v17.472h-4.382v-27.1S308.067,388.2,318.136,388.2Z" transform="translate(-308.71 -388.202)" fill="#213317"/>
    </clipPath>
    <clipPath id="clip-path-3">
      <rect id="사각형_69" data-name="사각형 69" width="4.561" height="19.515" fill="#213317"/>
    </clipPath>
    <clipPath id="clip-path-4">
      <path id="패스_1499" data-name="패스 1499" d="M364.205,392.365a2.71,2.71,0,1,1-2.71-2.71A2.712,2.712,0,0,1,364.205,392.365Z" transform="translate(-358.785 -389.655)" fill="#213317"/>
    </clipPath>
    <clipPath id="clip-path-5">
      <rect id="사각형_73" data-name="사각형 73" width="4.56" height="19.515" fill="#213317"/>
    </clipPath>
    <clipPath id="clip-path-6">
      <path id="패스_1500" data-name="패스 1500" d="M298.632,392.365a2.71,2.71,0,1,1-2.71-2.71A2.711,2.711,0,0,1,298.632,392.365Z" transform="translate(-293.212 -389.655)" fill="#213317"/>
    </clipPath>
    <clipPath id="clip-path-7">
      <path id="패스_1501" data-name="패스 1501" d="M299.735,400.048v14.392H297.8V398.172a3.352,3.352,0,0,1,3.411-3.29,3.434,3.434,0,0,1,2.67,1.266l.009-.008s.051.066.123.163l.036.044c.991,1.311,6.831,9.021,7.236,9.535.444.563.775,1.067.948,1.067.415,0,.375-1.037.375-1.037V394.926h1.935v15.162h-.011c-.053,4.041-.561,4.353-1.224,4.353,0,0-1.075.237-2.555-1.747s-9.122-12.645-9.122-12.645-1.065-1.717-1.48-1.717-.419,1.717-.419,1.717" transform="translate(-297.802 -394.882)" fill="#213317"/>
    </clipPath>
    <clipPath id="clip-path-8">
      <path id="패스_1502" data-name="패스 1502" d="M344.713,414.464c7.842,0,7.312-5.254,7.312-5.254V394.89h-2.051v14.544c0,2.513-3.83,2.862-3.83,2.862-4.952,0-5.028-2.746-5.028-2.746V394.89H336.58v12.581S335.961,414.464,344.713,414.464Z" transform="translate(-336.571 -394.89)" fill="#213317"/>
    </clipPath>
    <clipPath id="clip-path-9">
      <path id="패스_1503" data-name="패스 1503" d="M365.735,414.356h-2.488V399.172a3.733,3.733,0,0,0-.085-.679c-.04-.161-.095-.3-.19-.3-.267,0-.44.474-.44.474h-.021c-.049.114-.083.2-.083.2l-4.814,13.566s-.792,1.92-1.564,1.92-1.562-1.92-1.562-1.92l-4.816-13.566s-.032-.087-.082-.2c0,0-.174-.474-.44-.474-.1,0-.152.136-.192.3a3.741,3.741,0,0,0-.085.679v15.185h-2.523V398.161a3.458,3.458,0,0,1,3.618-3.271s2.858-.1,3.6,2.21l2.6,8.258s.476,1.219.8,1.219.658-1.16.658-1.16l2.748-8.316c.739-2.31,3.6-2.21,3.6-2.21a3.457,3.457,0,0,1,3.618,3.271v16.195h-4.185" transform="translate(-346.352 -394.89)" fill="#213317"/>
    </clipPath>
    <clipPath id="clip-path-10">
      <path id="패스_1504" data-name="패스 1504" d="M324.227,394.79c-6.053,0-10.964,4.443-10.964,9.92s4.911,9.922,10.964,9.922,10.966-4.441,10.966-9.922S330.282,394.79,324.227,394.79Zm0,18.549c-3.427,0-6.207-3.862-6.207-8.629s2.78-8.625,6.207-8.625,6.209,3.862,6.209,8.625S327.655,413.339,324.227,413.339Z" transform="translate(-313.263 -394.79)" fill="#213317"/>
    </clipPath>
  </defs>
  <g id="Logo" transform="translate(-140 -59.644)">
    <g id="인포루미_로고" data-name="인포루미 로고" transform="translate(140 59.644)">
      <g id="그룹_324" data-name="그룹 324" transform="translate(62.459 3.05)">
        <g id="그룹_323" data-name="그룹 323" transform="translate(0 0)" clip-path="url(#clip-path)">
          <rect id="사각형_66" data-name="사각형 66" width="141.32" height="38.543" transform="translate(-63.142 -8.201)" fill="#213317"/>
        </g>
      </g>
      <g id="그룹_326" data-name="그룹 326" transform="translate(29.373)">
        <g id="그룹_325" data-name="그룹 325" clip-path="url(#clip-path-2)">
          <rect id="사각형_67" data-name="사각형 67" width="141.32" height="38.543" transform="translate(-30.056 -5.15)" fill="#213317"/>
        </g>
      </g>
      <g id="그룹_328" data-name="그룹 328" transform="translate(124.706 12.704)">
        <g id="그룹_327" data-name="그룹 327" clip-path="url(#clip-path-3)">
          <rect id="사각형_68" data-name="사각형 68" width="141.32" height="38.543" transform="translate(-125.389 -17.855)" fill="#213317"/>
        </g>
      </g>
      <g id="그룹_330" data-name="그룹 330" transform="translate(124.277 2.754)">
        <g id="그룹_329" data-name="그룹 329" transform="translate(0 0)" clip-path="url(#clip-path-4)">
          <rect id="사각형_70" data-name="사각형 70" width="141.32" height="38.543" transform="translate(-124.959 -7.904)" fill="#213317"/>
          <rect id="사각형_71" data-name="사각형 71" width="141.32" height="38.543" transform="translate(-124.959 -7.904)" fill="#213317"/>
        </g>
      </g>
      <g id="그룹_332" data-name="그룹 332" transform="translate(0.43 12.704)">
        <g id="그룹_331" data-name="그룹 331" clip-path="url(#clip-path-5)">
          <rect id="사각형_72" data-name="사각형 72" width="141.32" height="38.543" transform="translate(-1.113 -17.855)" fill="#213317"/>
        </g>
      </g>
      <g id="그룹_334" data-name="그룹 334" transform="translate(0 2.754)">
        <g id="그룹_333" data-name="그룹 333" transform="translate(0 0)" clip-path="url(#clip-path-6)">
          <rect id="사각형_74" data-name="사각형 74" width="141.32" height="38.543" transform="translate(-0.682 -7.904)" fill="#213317"/>
        </g>
      </g>
      <g id="그룹_336" data-name="그룹 336" transform="translate(8.699 12.66)">
        <g id="그룹_335" data-name="그룹 335" transform="translate(0)" clip-path="url(#clip-path-7)">
          <rect id="사각형_75" data-name="사각형 75" width="141.32" height="38.543" transform="translate(-9.381 -17.811)" fill="#213317"/>
        </g>
      </g>
      <g id="그룹_338" data-name="그룹 338" transform="translate(82.176 12.675)">
        <g id="그룹_337" data-name="그룹 337" transform="translate(0 0)" clip-path="url(#clip-path-8)">
          <rect id="사각형_76" data-name="사각형 76" width="141.32" height="38.543" transform="translate(-82.858 -17.826)" fill="#213317"/>
        </g>
      </g>
      <g id="그룹_340" data-name="그룹 340" transform="translate(100.713 12.675)">
        <g id="그룹_339" data-name="그룹 339" transform="translate(0 0)" clip-path="url(#clip-path-9)">
          <rect id="사각형_77" data-name="사각형 77" width="141.32" height="38.543" transform="translate(-101.395 -17.825)" fill="#213317"/>
        </g>
      </g>
      <g id="그룹_342" data-name="그룹 342" transform="translate(38.001 12.486)">
        <g id="그룹_341" data-name="그룹 341" transform="translate(0)" clip-path="url(#clip-path-10)">
          <rect id="사각형_78" data-name="사각형 78" width="141.32" height="38.543" transform="translate(-38.684 -17.636)" fill="#213317"/>
        </g>
      </g>
    </g>
  </g>
</svg>
